:FULLY-SPECIFIED
:DEGREES
893
root 4.02313 16.3373 -3.97771 214.16 -96.899 -208.06
lowerback 2.92563 1.02385 4.71459
upperback 1.25695 1.45693 2.14347
thorax -0.285039 0.71828 -0.484851
lowerneck -17.9365 0.31035 -0.0907575
upperneck 15.7792 0.731533 -1.60153
head 7.83241 0.167949 -0.432015
rclavicle -3.18055e-015 4.77083e-015
rhumerus -25.5422 -3.92468 -80.7535
rradius 23.3901
rwrist 26.5779
rhand -27.9304 0.989693
rfingers 7.12502
rthumb -1.31868 -28.986
lclavicle -3.18055e-015 4.77083e-015
lhumerus -29.819 3.75379 90.5278
lradius 22.9513
lwrist -13.7511
lhand -25.6979 1.4185
lfingers 7.12502
lthumb 0.837518 31.3966
rfemur -3.31609 10.3142 31.5228
rtibia 14.3464
rfoot -15.2938 -17.9306
rtoes -3.84198
lfemur -35.5391 -8.14303 -16.6168
ltibia 37.4803
lfoot -10.688 2.56635
ltoes -15.9539
894
root 4.02766 16.3502 -3.97576 215.005 -96.9553 -208.697
lowerback 2.76174 1.09636 4.79153
upperback 1.18366 1.54893 2.12733
thorax -0.262124 0.764499 -0.544183
lowerneck -17.9462 0.273653 0.0127637
upperneck 15.7262 0.661277 -1.63883
head 7.81625 0.137829 -0.469474
rclavicle 1.59028e-015 6.75868e-015
rhumerus -25.5223 -3.66485 -80.9323
rradius 23.552
rwrist 26.1988
rhand -27.9914 1.2436
rfingers 7.12502
rthumb -1.37759 -28.7317
lclavicle 1.59028e-015 6.75868e-015
lhumerus -29.8721 3.87308 90.419
lradius 22.6928
lwrist -13.8949
lhand -25.8595 1.40793
lfingers 7.12502
lthumb 0.681482 31.3866
rfemur -2.13317 10.4209 31.6939
rtibia 12.4038
rfoot -14.7028 -17.9722
rtoes -3.96198
lfemur -35.7419 -8.74697 -16.2354
ltibia 35.0011
lfoot -9.35057 3.32934
ltoes -14.9922
895
root 4.03145 16.3629 -3.97571 215.224 -97.0422 -208.644
lowerback 2.54242 1.13369 4.7576
upperback 1.09506 1.58875 2.13083
thorax -0.229787 0.784458 -0.519042
lowerneck -17.961 0.249543 0.0210293
upperneck 15.6497 0.613244 -1.57126
head 7.79264 0.123292 -0.453831
rclavicle -3.97569e-014 -3.37934e-014
rhumerus -25.5058 -3.2653 -81.1355
rradius 23.7927
rwrist 25.8442
rhand -27.9741 1.11441
rfingers 7.12502
rthumb -1.36093 -28.861
lclavicle -3.97569e-014 -3.37934e-014
lhumerus -29.9542 4.01712 90.3358
lradius 22.4906
lwrist -13.985
lhand -25.8591 1.43569
lfingers 7.12502
lthumb 0.681809 31.4143
rfemur -0.920396 10.7155 31.8194
rtibia 10.2396
rfoot -13.9547 -18.2508
rtoes -3.89289
lfemur -36.035 -9.42014 -15.8577
ltibia 32.6507
lfoot -7.82243 3.8547
ltoes -15.1006
896
root 4.0337 16.3726 -3.97609 215.669 -97.1056 -208.844
lowerback 2.34369 1.14832 4.68667
upperback 0.996945 1.5991 2.1673
thorax -0.222023 0.788752 -0.439285
lowerneck -17.9775 0.235776 -0.0442062
upperneck 15.6305 0.59461 -1.4811
head 7.78841 0.11982 -0.415391
rclavicle 1.43125e-014 -1.98785e-014
rhumerus -25.4802 -2.87649 -81.3056
rradius 23.9078
rwrist 25.5719
rhand -27.9568 1.22734
rfingers 7.12502
rthumb -1.34414 -28.7482
lclavicle 1.43125e-014 -1.98785e-014
lhumerus -30.0317 4.37164 90.2005
lradius 22.2472
lwrist -14.1291
lhand -25.8445 1.53475
lfingers 7.12502
lthumb 0.695948 31.5134
rfemur 0.530997 10.4729 31.9732
rtibia 7.71462
rfoot -13.0956 -17.9943
rtoes -3.97718
lfemur -36.2685 -10.093 -15.4428
ltibia 30.4452
lfoot -6.43928 4.31358
ltoes -14.633
897
root 4.03549 16.3804 -3.97613 215.445 -97.134 -208.34
lowerback 2.10928 1.21514 4.59317
upperback 0.88355 1.67879 2.10554
thorax -0.204969 0.828769 -0.448366
lowerneck -17.9734 0.179413 -0.0341266
upperneck 15.6373 0.491274 -1.3562
head 7.78863 0.0841125 -0.387781
rclavicle -2.38542e-014 -1.43125e-014
rhumerus -25.4956 -2.95402 -81.4538
rradius 23.9944
rwrist 25.744
rhand -27.9216 1.10125
rfingers 7.12502
rthumb -1.31016 -28.8745
lclavicle -2.38542e-014 -1.43125e-014
lhumerus -30.0923 4.51136 89.985
lradius 21.8814
lwrist -14.6124
lhand -25.7644 1.38177
lfingers 7.12502
lthumb 0.773337 31.3601
rfemur 2.35145 10.207 31.9844
rtibia 4.2832
rfoot -11.6242 -17.6685
rtoes -4.11219
lfemur -36.5668 -10.7659 -15.1083
ltibia 28.4683
lfoot -5.17793 4.62202
ltoes -14.2126
898
root 4.03504 16.3829 -3.97445 215.284 -97.1411 -207.991
lowerback 1.91974 1.25919 4.48568
upperback 0.826822 1.72786 2.05837
thorax -0.156941 0.85428 -0.434021
lowerneck -18.0127 0.132435 -0.00943167
upperneck 15.6366 0.401944 -1.25568
head 7.79424 0.0534794 -0.368993
rclavicle -2.54444e-014 -4.17448e-015
rhumerus -25.5961 -2.42723 -81.7845
rradius 24.3545
rwrist 24.8751
rhand -27.7728 1.17676
rfingers 7.12502
rthumb -1.16648 -28.7998
lclavicle -2.54444e-014 -4.17448e-015
lhumerus -30.1267 4.61921 89.8225
lradius 21.6056
lwrist -14.8217
lhand -25.6736 1.53407
lfingers 7.12502
lthumb 0.860968 31.5121
rfemur 4.7453 9.94932 31.9722
rtibia 3.18055e-015
rfoot -9.86197 -17.2253
rtoes -3.87381
lfemur -36.7545 -11.3852 -14.8173
ltibia 26.7467
lfoot -4.12191 4.83784
ltoes -14.6129
899
root 4.03418 16.384 -3.97193 215.025 -97.0949 -207.589
lowerback 1.79914 1.25907 4.28368
upperback 0.7707 1.72081 2.05685
thorax -0.153471 0.850492 -0.320943
lowerneck -18.0376 0.145618 -0.0308814
upperneck 15.642 0.414314 -1.19512
head 7.80017 0.0641617 -0.343941
rclavicle 2.22639e-014 -1.35174e-014
rhumerus -25.495 -2.21837 -81.9553
rradius 24.2777
rwrist 25.1348
rhand -27.7878 1.20201
rfingers 7.12502
rthumb -1.18095 -28.7745
lclavicle 2.22639e-014 -1.35174e-014
lhumerus -30.2239 4.93765 89.6472
lradius 21.3288
lwrist -15.0887
lhand -25.4876 1.46815
lfingers 7.12502
lthumb 1.04065 31.4454
rfemur 5.03504 9.7244 31.969
rtibia -2.22639e-014
rfoot -10.2672 -17.0445
rtoes -3.87637
lfemur -36.8707 -11.8589 -14.6423
ltibia 25.3149
lfoot -3.29624 4.87069
ltoes -14.6427
900
root 4.03639 16.3827 -3.9692 215.064 -97.1221 -207.422
lowerback 1.65746 1.31347 4.25568
upperback 0.688931 1.78955 1.99166
thorax -0.154376 0.884884 -0.370878
lowerneck -18.156 0.0741846 -0.0175401
upperneck 15.7361 0.295421 -1.09549
head 7.85092 0.0178893 -0.327397
rclavicle -2.38542e-014 1.88845e-014
rhumerus -25.5333 -1.96628 -82.2288
rradius 24.4445
rwrist 24.8847
rhand -27.724 1.20256
rfingers 7.12502
rthumb -1.11931 -28.7742
lclavicle -2.38542e-014 1.88845e-014
lhumerus -30.2361 5.03725 89.4481
lradius 21.0392
lwrist -15.3099
lhand -25.3082 1.57986
lfingers 7.12502
lthumb 1.21386 31.5561
rfemur 5.23279 9.47057 32.0184
rtibia 0
rfoot -10.6441 -16.9044
rtoes -4.19069
lfemur -37.1267 -12.2012 -14.4693
ltibia 24.2185
lfoot -2.78235 4.82749
ltoes -14.1849
901
root 4.03659 16.3776 -3.96432 214.587 -97.0794 -206.832
lowerback 1.55101 1.32643 4.11474
upperback 0.663739 1.80151 1.91983
thorax -0.122356 0.891963 -0.363821
lowerneck -18.1977 0.067792 -0.0288357
upperneck 15.7169 0.263994 -0.959645
head 7.85122 0.0163931 -0.284096
rclavicle -1.59028e-015 7.35503e-015
rhumerus -25.4751 -1.85394 -82.4992
rradius 24.4594
rwrist 24.848
rhand -27.6846 1.41066
rfingers 7.12502
rthumb -1.08134 -28.5663
lclavicle -1.59028e-015 7.35503e-015
lhumerus -30.2352 5.20795 89.2023
lradius 20.7264
lwrist -15.538
lhand -25.1415 1.4972
lfingers 7.12502
lthumb 1.37488 31.4725
rfemur 5.56929 9.22358 31.9932
rtibia -9.54166e-015
rfoot -11.0181 -16.7033
rtoes -4.24845
lfemur -37.2531 -12.4933 -14.4793
ltibia 23.4864
lfoot -2.70888 4.71891
ltoes -13.9314
902
root 4.03823 16.3662 -3.95807 214.269 -97.0679 -206.465
lowerback 1.54384 1.31886 4.00927
upperback 0.634977 1.79181 1.88887
thorax -0.150583 0.886789 -0.336975
lowerneck -18.2307 0.0605412 -0.0142394
upperneck 15.7544 0.242793 -0.920118
head 7.86925 0.0110039 -0.275961
rclavicle 3.18055e-015 -1.70955e-014
rhumerus -25.4782 -1.40873 -82.8068
rradius 24.561
rwrist 24.6053
rhand -27.4932 1.26511
rfingers 7.12502
rthumb -0.896467 -28.7128
lclavicle 3.18055e-015 -1.70955e-014
lhumerus -30.2905 5.33479 89.0505
lradius 20.4345
lwrist -15.8274
lhand -25.0364 1.65347
lfingers 7.12502
lthumb 1.4764 31.6281
rfemur 5.93848 8.95388 32.0209
rtibia -3.18055e-015
rfoot -11.3333 -16.5541
rtoes -4.57839
lfemur -37.2788 -12.6338 -14.5887
ltibia 23.0803
lfoot -2.98621 4.55535
ltoes -14.3728
